<svg width="76" height="51" viewBox="0 0 76 51" fill="none" xmlns="http://www.w3.org/2000/svg">
<path d="M47.5 40.6298C42.5264 37.9923 38.7113 36.5134 35.3152 35.9464L35.6667 35.4632C35.8334 35.2965 35.9167 35.0465 35.8334 34.7965L35.0456 31.6454C37.0771 28.73 38.2437 25.0915 38.1667 21.6298V16.6728C38.2232 16.632 38.2789 16.59 38.3334 16.5465C39.4167 15.6298 40.0001 14.2965 40.0001 12.9632C40.0001 6.71318 34.9168 1.62988 28.7501 1.62988H21.3334C15.0834 1.62988 10.0001 6.71318 9.9167 12.8799C9.9167 14.2966 10.5 15.5466 11.5834 16.4632C11.6106 16.4842 11.6391 16.5037 11.6667 16.5241V21.6298C11.6667 25.1022 12.8821 28.7527 14.9477 31.6727L14.1667 34.7964C14.1667 34.9631 14.1667 35.2131 14.3334 35.4631L14.6849 35.9463C11.2888 36.5134 7.47363 37.9922 2.5001 40.6297C0.916699 41.3798 0 42.9631 0 44.7131V48.2964C0 48.7964 0.333301 49.1297 0.833301 49.1297H49.1666C49.6666 49.1297 49.9999 48.7964 49.9999 48.2964V44.7131C50 43.0465 49 41.4631 47.5 40.6298ZM33.75 33.2965L34.0833 34.7965L33.232 35.9653C33.1777 36.0098 33.1274 36.0636 33.0833 36.1298L28.5 42.4631L26.253 37.3867C28.6772 37.0951 30.8661 35.9718 32.6868 34.3335C33.0524 34.0111 33.4075 33.6653 33.75 33.2965ZM37.25 15.2131C37.2281 15.2322 37.2053 15.25 37.1829 15.2685C37.0893 15.2902 36.9983 15.3253 36.9167 15.3798C36.5562 15.6502 36.1712 15.8222 35.7752 15.8977C35.4611 15.9458 35.1416 15.9415 34.8334 15.8798C28.8565 14.7449 22.811 14.6405 17.0086 15.5663C16.3646 15.6594 15.7228 15.7635 15.0834 15.8798C14.9808 15.8912 14.8781 15.8975 14.7757 15.8995C14.1058 15.8875 13.4565 15.7014 12.9167 15.2965C12.4167 14.9632 12.0834 14.4632 11.9167 13.9632L15.5 13.2965C21.75 12.1298 28.1667 12.1298 34.5833 13.2965L38.1387 13.9579C37.9542 14.4297 37.6469 14.8658 37.25 15.2131ZM21.25 3.29648H28.6667C33.7783 3.29648 37.9706 7.27715 38.3105 12.3036L34.8334 11.7132C28.2501 10.5465 21.5834 10.5465 15.1667 11.7132L11.6896 12.3036C12.0292 7.27715 16.2183 3.29648 21.25 3.29648ZM13.3333 17.3798C14 17.5465 14.75 17.6298 15.5 17.4631C18.6114 16.8823 21.7641 16.5908 24.9375 16.5883C28.1113 16.5908 31.3057 16.8822 34.5 17.4631C34.7276 17.52 34.9161 17.5377 35.0926 17.5435C35.6172 17.5832 36.1654 17.5051 36.6666 17.3798V21.6298C36.6666 25.2635 35.4201 28.4925 33.5485 30.9469L33.4999 30.9631C33.4166 31.0464 33.3332 31.1298 33.2499 31.2131C32.8307 31.7721 32.3882 32.2817 31.9259 32.7413C29.8567 34.669 27.3668 35.7964 25 35.7964H24.9999C24.9133 35.7964 24.8269 35.7946 24.7404 35.7919C23.3324 35.7435 21.8882 35.3024 20.5209 34.5383C19.164 33.7588 17.8875 32.635 16.75 31.213C16.6667 31.1297 16.5833 31.0463 16.5 30.963L16.4514 30.9468C14.5799 28.4923 13.3333 25.2633 13.3333 21.6297V17.3798ZM23.747 37.3867L21.5 42.4631L16.9167 36.1298C16.8901 36.1032 16.8608 36.077 16.8304 36.0511L15.9167 34.7964L16.25 33.2964C16.3627 33.4178 16.4771 33.536 16.5924 33.6524C18.553 35.658 20.9995 37.0563 23.747 37.3867ZM48.3333 47.4631H29.1667H1.6667V44.7131C1.6667 43.6298 2.25 42.6298 3.25 42.1298C8.56182 39.3079 12.3855 37.8916 15.7918 37.4686L21 44.6298C21.1309 44.8262 21.314 44.9188 21.5477 44.9498C21.5871 44.9576 21.6269 44.9631 21.6666 44.9631C21.6666 44.9631 21.7499 44.9631 21.7499 45.0464C21.9999 45.0464 22.3332 44.7964 22.4166 44.5464L25.0046 38.7233L26.1072 41.142L27.5833 44.4631C27.6666 44.7131 27.9166 44.9631 28.25 44.9631H28.3333C28.5833 44.9631 28.8333 44.7964 29 44.6298L34.262 37.3944C37.6562 37.9066 41.5486 39.3219 46.75 42.0464C47.75 42.6297 48.3333 43.6297 48.3333 44.7131V47.4631Z" fill="black"/>
<path d="M23.3333 9.96318H26.6666C27.1666 9.96318 27.4999 9.62988 27.4999 9.12988V4.96318C27.4999 4.46318 27.1666 4.12988 26.6666 4.12988H23.3333C22.8333 4.12988 22.5 4.46318 22.5 4.96318V9.12988C22.5 9.62988 22.8333 9.96318 23.3333 9.96318ZM24.1667 5.79658H25.8334V8.29658H24.1667V5.79658Z" fill="black"/>
<g clip-path="url(#clip0_22_820)">
<path d="M68 24.3799H62V26.3799H68V24.3799Z" fill="black"/>
<path d="M74 20.3799H62V22.3799H74V20.3799Z" fill="black"/>
<path d="M74 16.3799H62V18.3799H74V16.3799Z" fill="black"/>
<path d="M58 26.3799V24.3799H53V22.3799H51V24.3799H46V26.3799H54.2148C53.8473 27.8807 53.0817 29.2547 51.9989 30.357C51.4313 29.7648 50.9448 29.1 50.5521 28.3799H48.3334C48.8417 29.6002 49.5687 30.7174 50.4785 31.6765C49.4064 32.44 48.2364 33.0557 47 33.5069L47.7021 35.3799C49.2408 34.8195 50.6871 34.032 51.9928 33.0437C53.3035 34.0324 54.7546 34.8198 56.2979 35.3799L57 33.5069C55.7642 33.0566 54.5947 32.4421 53.5228 31.6799C54.9343 30.2203 55.8835 28.3766 56.2516 26.3799H58Z" fill="black"/>
<path d="M55.1666 18.3799H57.333L52.75 7.37988H50.5832L46 18.3799H48.1664L49 16.3799H54.3335L55.1666 18.3799ZM49.8331 14.3799L51.6665 9.97988L53.5 14.3799H49.8331Z" fill="black"/>
</g>
<defs>
<clipPath id="clip0_22_820">
<rect width="32" height="32" fill="white" transform="translate(44 5.37988)"/>
</clipPath>
</defs>
</svg>
