<svg width="70" height="69" viewBox="0 0 70 69" fill="none" xmlns="http://www.w3.org/2000/svg">
<path d="M8 11.0464V53.7131C8 56.2277 8 57.4837 8.78133 58.2651C9.56267 59.0464 10.8187 59.0464 13.3333 59.0464H50.6667C53.1813 59.0464 54.4373 59.0464 55.2187 58.2651C56 57.4837 56 56.2277 56 53.7131V11.0464M28 21.7131V25.7131M28 25.7131V29.7131M28 25.7131H36M36 21.7131V25.7131M36 25.7131V29.7131" stroke="black" stroke-width="2.2" stroke-linecap="round" stroke-linejoin="round"/>
<path d="M37.3335 59.0465V48.3798C37.3335 46.9653 36.7716 45.6088 35.7714 44.6086C34.7712 43.6084 33.4147 43.0465 32.0002 43.0465C30.5857 43.0465 29.2291 43.6084 28.2289 44.6086C27.2287 45.6088 26.6668 46.9653 26.6668 48.3798V59.0465M5.3335 11.0465H21.3335C23.0402 7.91847 27.1735 5.71313 32.0002 5.71313C36.8268 5.71313 40.9602 7.91847 42.6668 11.0465H58.6668M13.5 21.7131H22M13.5 32.3798L22 32.3798M14 43.0465H20.5M42.6668 21.7131H50.5M42.6668 32.3798H50.5M45.3335 43.0465H48.0002" stroke="black" stroke-width="2.2" stroke-linecap="round" stroke-linejoin="round"/>
<path d="M45.6667 37.3799H66.3333C66.3333 37.3799 69 37.3799 69 40.0465V49.3799V60.7132C69 60.7132 69 63.3799 66.3333 63.3799H65H47H45.6667C45.6667 63.3799 43 63.3799 43 60.7132V49.3799V40.0465C43 40.0465 43 37.3799 45.6667 37.3799Z" fill="white"/>
<path d="M47 63.3799V67.3799M65 63.3799V67.3799M43 49.3799H69M45.6667 37.3799H66.3333C66.3333 37.3799 69 37.3799 69 40.0465V60.7132C69 60.7132 69 63.3799 66.3333 63.3799H45.6667C45.6667 63.3799 43 63.3799 43 60.7132V40.0465C43 40.0465 43 37.3799 45.6667 37.3799Z" stroke="black" stroke-width="2" stroke-linecap="round" stroke-linejoin="round"/>
<path d="M50 55.7131C50.2652 55.7131 50.5196 55.8185 50.7071 56.006C50.8946 56.1936 51 56.4479 51 56.7131M49 56.7131C49 56.4479 49.1054 56.1936 49.2929 56.006C49.4804 55.8185 49.7348 55.7131 50 55.7131M50 57.7131C49.7348 57.7131 49.4804 57.6078 49.2929 57.4202C49.1054 57.2327 49 56.9784 49 56.7131M51 56.7131C51 56.9784 50.8946 57.2327 50.7071 57.4202C50.5196 57.6078 50.2652 57.7131 50 57.7131M62 55.7131C62.2652 55.7131 62.5196 55.8185 62.7071 56.006C62.8946 56.1936 63 56.4479 63 56.7131M61 56.7131C61 56.4479 61.1054 56.1936 61.2929 56.006C61.4804 55.8185 61.7348 55.7131 62 55.7131M62 57.7131C61.7348 57.7131 61.4804 57.6078 61.2929 57.4202C61.1054 57.2327 61 56.9784 61 56.7131M63 56.7131C63 56.9784 62.8946 57.2327 62.7071 57.4202C62.5196 57.6078 62.2652 57.7131 62 57.7131" stroke="black" stroke-width="2" stroke-linecap="round" stroke-linejoin="round"/>
</svg>
