<svg width="77" height="72" viewBox="0 0 77 72" fill="none" xmlns="http://www.w3.org/2000/svg">
<path d="M10.5151 46.0487C9.61029 46.9778 8.79397 47.9891 8.07667 49.0695C7.93487 49.2791 7.88091 49.5359 7.92638 49.7848C7.97186 50.0337 8.11313 50.2549 8.31987 50.4007C8.47884 50.5019 8.66265 50.5573 8.85107 50.5607C9.00955 50.5614 9.16568 50.5225 9.30536 50.4476C9.44504 50.3728 9.56385 50.2643 9.65107 50.1319C10.3044 49.1515 11.0456 48.2325 11.8655 47.3863C12.0333 47.2021 12.123 46.9598 12.1154 46.7107C12.1078 46.4616 12.0037 46.2252 11.825 46.0514C11.6463 45.8777 11.407 45.7803 11.1578 45.7798C10.9085 45.7793 10.6689 45.8757 10.4895 46.0487H10.5151Z" fill="black"/>
<path d="M43.3471 35.0217C42.3231 35.2201 41.1711 35.4249 39.7183 35.6617C39.4637 35.6821 39.2276 35.8027 39.062 35.9972C38.8963 36.1916 38.8147 36.4439 38.8351 36.6985C38.8555 36.9531 38.9761 37.1892 39.1706 37.3548C39.365 37.5204 39.6173 37.6021 39.8719 37.5817H40.0255C41.4975 37.3449 42.6687 37.1337 43.7183 36.9417C43.9729 36.8925 44.1975 36.7441 44.3428 36.5293C44.488 36.3144 44.5419 36.0507 44.4927 35.7961C44.4435 35.5415 44.2951 35.3169 44.0803 35.1716C43.8654 35.0264 43.6017 34.9725 43.3471 35.0217Z" fill="black"/>
<path d="M26.24 38.1C24.928 38.42 23.7376 38.74 22.5984 39.1176C22.3795 39.1869 22.1927 39.3324 22.0719 39.5276C21.9511 39.7228 21.9042 39.9549 21.9398 40.1817C21.9755 40.4085 22.0912 40.615 22.266 40.7639C22.4408 40.9127 22.6632 40.9939 22.8928 40.9928C22.9906 40.9936 23.0879 40.9784 23.1808 40.948C24.2816 40.596 25.4272 40.308 26.6944 39.9688C26.9422 39.9085 27.156 39.7523 27.2886 39.5344C27.4212 39.3166 27.4619 39.055 27.4016 38.8072C27.3414 38.5594 27.1851 38.3456 26.9673 38.213C26.7494 38.0804 26.4878 38.0397 26.24 38.1Z" fill="black"/>
<path d="M12.4878 50.7313C12.3874 50.6296 12.2678 50.5489 12.1359 50.4938C12.0041 50.4387 11.8626 50.4104 11.7197 50.4104C11.5768 50.4104 11.4354 50.4387 11.3035 50.4938C11.1717 50.5489 11.0521 50.6296 10.9517 50.7313L8.52428 53.1586L8.29241 52.9268L6.11864 50.753C5.91782 50.5407 5.64087 50.4168 5.34871 50.4086C5.05656 50.4005 4.77313 50.5087 4.56077 50.7095C4.34842 50.9104 4.22455 51.1873 4.21639 51.4795C4.20824 51.7716 4.31648 52.0551 4.5173 52.2674L6.94468 54.6948L4.5173 57.1222C4.41543 57.2232 4.33457 57.3434 4.27939 57.4759C4.22421 57.6083 4.1958 57.7504 4.1958 57.8938C4.1958 58.0373 4.22421 58.1794 4.27939 58.3118C4.33457 58.4443 4.41543 58.5645 4.5173 58.6655C4.61825 58.7658 4.73815 58.845 4.87001 58.8985C5.00188 58.952 5.14307 58.9787 5.28537 58.9771C5.57219 58.9772 5.84775 58.8654 6.05343 58.6655L8.48081 56.2309L8.64022 56.3976L10.9082 58.6655C11.0091 58.7658 11.129 58.845 11.2609 58.8985C11.3928 58.952 11.534 58.9787 11.6762 58.9771C11.8257 58.9838 11.9749 58.9596 12.1145 58.906C12.2542 58.8524 12.3812 58.7705 12.4878 58.6655C12.69 58.4596 12.8033 58.1825 12.8033 57.8938C12.8033 57.6052 12.69 57.3281 12.4878 57.1222L10.0242 54.6948L12.4878 52.2674C12.6896 52.0627 12.8027 51.7868 12.8027 51.4993C12.8027 51.2119 12.6896 50.936 12.4878 50.7313Z" fill="black"/>
<path d="M62.771 22.6184C63.234 21.679 63.4728 20.6449 63.4686 19.5976C63.4619 17.5832 62.6586 15.6532 61.2342 14.2288C59.8098 12.8043 57.8798 12.0011 55.8654 11.9944C53.8516 11.9994 51.9216 12.8012 50.497 14.2246C49.0724 15.648 48.269 17.5774 48.2622 19.5912C48.259 20.3644 48.3867 21.1326 48.6398 21.8632L47.3086 21.6136H47.1422H47.027H46.963L31.763 24.4232L16.5694 21.6136C16.4927 21.6072 16.4157 21.6072 16.339 21.6136H16.1534L0.793411 24.4552C0.570223 24.4932 0.367827 24.6093 0.222431 24.7828C0.0770342 24.9564 -0.0018778 25.176 -0.000188816 25.4024V63.06C-0.00380536 63.2057 0.0253747 63.3504 0.0851945 63.4833C0.145014 63.6163 0.233944 63.734 0.345411 63.828C0.525874 63.9747 0.752925 64.0519 0.985411 64.0456C1.04284 64.0519 1.10079 64.0519 1.15821 64.0456L16.3902 61.2296L31.6158 64.0456C31.7304 64.0627 31.8468 64.0627 31.9614 64.0456L47.1614 61.236L62.355 64.0456C62.4146 64.0522 62.4747 64.0522 62.5342 64.0456C62.7664 64.0497 62.9927 63.9727 63.1742 63.828C63.2764 63.7292 63.3557 63.6093 63.4066 63.4766C63.4574 63.3439 63.4786 63.2017 63.4686 63.06V25.4024C63.4693 25.1773 63.3908 24.9591 63.2469 24.7859C63.103 24.6128 62.9029 24.4957 62.6814 24.4552L61.8558 24.3016L62.7198 22.8232C62.7457 22.7574 62.7629 22.6886 62.771 22.6184ZM55.859 31.0216L50.803 22.0616C50.7866 22.0136 50.7674 21.9665 50.7454 21.9208C50.3707 21.2109 50.1772 20.4195 50.1822 19.6168C50.1822 18.1095 50.781 16.664 51.8468 15.5982C52.9126 14.5323 54.3581 13.9336 55.8654 13.9336C57.3727 13.9336 58.8182 14.5323 59.884 15.5982C60.9498 16.664 61.5486 18.1095 61.5486 19.6168C61.5499 20.417 61.3567 21.2055 60.9854 21.9144C60.9607 21.9589 60.9413 22.0061 60.9278 22.0552L55.859 31.0216ZM1.91981 61.9336V26.196L15.3598 23.7128V42.2728C15.0654 42.4456 14.7774 42.6248 14.4958 42.804C14.3215 42.9166 14.1883 43.0827 14.1163 43.2774C14.0443 43.4721 14.0373 43.6848 14.0964 43.8838C14.1556 44.0828 14.2776 44.2572 14.4442 44.381C14.6108 44.5048 14.813 44.5712 15.0206 44.5704C15.1372 44.5692 15.2524 44.5453 15.3598 44.5V59.4504L1.91981 61.9336ZM17.3566 43.3736C17.7854 43.1432 18.2206 42.9128 18.6814 42.6952C18.7965 42.6424 18.8998 42.567 18.9853 42.4736C19.0708 42.3801 19.1366 42.2705 19.179 42.1512C19.2214 42.0318 19.2394 41.9052 19.232 41.7788C19.2245 41.6524 19.1918 41.5287 19.1358 41.4152C19.0822 41.3007 19.0066 41.1979 18.9132 41.1128C18.8197 41.0276 18.7104 40.9617 18.5915 40.9189C18.4726 40.8761 18.3464 40.8572 18.2201 40.8633C18.0939 40.8694 17.9701 40.9003 17.8558 40.9544L17.3502 41.204V23.7128L30.7902 26.196V37.1912C30.6286 37.2943 30.5011 37.4429 30.4237 37.6182C30.3463 37.7936 30.3224 37.9879 30.355 38.1768C30.3788 38.308 30.4298 38.4327 30.5048 38.5429C30.5797 38.6532 30.677 38.7465 30.7902 38.8168V61.9336L17.3502 59.4504L17.3566 43.3736ZM32.7166 38.7592C33.523 38.6184 34.3294 38.4776 35.123 38.3496C35.3776 38.3088 35.6056 38.1686 35.7568 37.9598C35.9081 37.751 35.9701 37.4906 35.9294 37.236C35.8887 36.9814 35.7485 36.7534 35.5396 36.6021C35.3308 36.4509 35.0704 36.3888 34.8158 36.4296C34.1246 36.5384 33.4206 36.6664 32.7166 36.7816V26.196L46.1566 23.7128V59.4504L32.7166 61.9336V38.7592ZM61.5166 26.2152V61.9336L48.0766 59.4504V35.7192C48.1581 35.7413 48.2418 35.7542 48.3262 35.7576C48.4219 35.7588 48.5172 35.7437 48.6078 35.7128C49.8584 35.3438 51.0713 34.8574 52.2302 34.26C52.4513 34.1416 52.6173 33.9414 52.6926 33.7021C52.768 33.4629 52.7467 33.2037 52.6334 32.98C52.5138 32.7601 52.3136 32.5952 52.0748 32.52C51.8361 32.4448 51.5774 32.4651 51.3534 32.5768C50.3151 33.1011 49.2312 33.5296 48.115 33.8568V23.7128L49.7278 24.0136L55.0398 33.4472C55.1235 33.5949 55.245 33.7178 55.3917 33.8033C55.5384 33.8888 55.7052 33.9339 55.875 33.9339C56.0448 33.9339 56.2116 33.8888 56.3583 33.8033C56.5051 33.7178 56.6265 33.5949 56.7102 33.4472L60.8702 26.068L61.5166 26.2152Z" fill="black"/>
<path d="M55.8589 22.644C56.5551 22.644 57.2356 22.4376 57.8145 22.0508C58.3933 21.664 58.8445 21.1142 59.1109 20.4711C59.3773 19.8279 59.4471 19.1201 59.3112 18.4373C59.1754 17.7545 58.8402 17.1273 58.3479 16.635C57.8556 16.1427 57.2284 15.8075 56.5456 15.6716C55.8628 15.5358 55.155 15.6055 54.5118 15.8719C53.8686 16.1384 53.3189 16.5895 52.9321 17.1684C52.5453 17.7473 52.3389 18.4278 52.3389 19.124C52.3389 20.0576 52.7097 20.9529 53.3699 21.613C54.03 22.2731 54.9253 22.644 55.8589 22.644ZM55.8589 17.524C56.1753 17.524 56.4847 17.6178 56.7478 17.7937C57.0109 17.9695 57.216 18.2194 57.3371 18.5117C57.4582 18.8041 57.4899 19.1258 57.4281 19.4362C57.3664 19.7465 57.214 20.0316 56.9902 20.2554C56.7665 20.4791 56.4814 20.6315 56.171 20.6933C55.8606 20.755 55.5389 20.7233 55.2466 20.6022C54.9542 20.4811 54.7043 20.276 54.5285 20.0129C54.3527 19.7498 54.2589 19.4405 54.2589 19.124C54.2589 18.9139 54.3003 18.7058 54.3807 18.5117C54.4611 18.3176 54.5789 18.1412 54.7275 17.9926C54.8761 17.8441 55.0525 17.7262 55.2466 17.6458C55.4407 17.5654 55.6488 17.524 55.8589 17.524Z" fill="black"/>
<path d="M71.2464 5.47568L71.8753 7.38436C72.0629 7.98301 72.4501 8.49924 72.9722 8.84695L74.603 9.90001C75.1371 10.2589 75.5323 10.7899 75.7225 11.4046C75.9128 12.0193 75.8868 12.6807 75.6487 13.2786L75.0344 14.807C74.7604 15.4823 74.7604 16.2378 75.0344 16.9131L75.6414 18.3757C75.8826 18.9609 75.9185 19.6106 75.7432 20.2188C75.5679 20.8271 75.1918 21.358 74.6761 21.725L73.2355 22.7635C72.7181 23.1354 72.3418 23.6715 72.1678 24.2846L71.6779 26.0689C71.5007 26.6938 71.1123 27.2379 70.5789 27.6086C70.0456 27.9793 69.4002 28.1536 68.7528 28.1019L67.2171 27.9703C66.4953 27.9118 65.7784 28.1316 65.2134 28.5846L63.7509 29.7766C63.2505 30.1859 62.624 30.4095 61.9775 30.4095C61.3311 30.4095 60.7045 30.1859 60.2042 29.7766L58.9098 28.7601C58.4054 28.344 57.772 28.1165 57.1182 28.1165H54.8585C54.2211 28.1167 53.6026 27.8994 53.1053 27.5005C52.608 27.1016 52.2617 26.545 52.1236 25.9227L51.7214 24.2041C51.5638 23.5151 51.1509 22.9115 50.5659 22.5148L49.2277 21.5861C48.7124 21.2352 48.3284 20.7228 48.1365 20.1296C47.9445 19.5364 47.9553 18.8962 48.1674 18.3099L48.7963 16.584C49.0267 15.9561 49.0267 15.2667 48.7963 14.6388L48.2332 13.1323C48.0096 12.5316 47.9972 11.8727 48.1979 11.264C48.3986 10.6553 48.8004 10.133 49.3374 9.783L50.8 8.82501C51.3731 8.45108 51.7914 7.88212 51.9773 7.22348L52.4234 5.62926C52.6005 5.00375 52.9885 4.45878 53.5217 4.08688C54.0549 3.71497 54.7003 3.53904 55.3485 3.58895L56.7599 3.71327C57.4817 3.77172 58.1985 3.55195 58.7636 3.09898L60.1018 2.01667C60.6039 1.60491 61.2331 1.37988 61.8824 1.37988C62.5318 1.37988 63.161 1.60491 63.6631 2.01667L64.877 3.02585C65.4373 3.4952 66.1593 3.72624 66.888 3.66939L68.3506 3.5597C68.9782 3.50809 69.6049 3.66895 70.1301 4.01644C70.6553 4.36392 71.0485 4.87786 71.2464 5.47568Z" fill="white" stroke="black" stroke-width="2"/>
<path d="M70.6509 27.7134L75.7698 36.6425C75.9014 36.8692 75.7698 37.1105 75.6016 37.0447L69.3053 34.4852C69.2813 34.4775 69.2559 34.4751 69.2308 34.4781C69.2058 34.4811 69.1817 34.4895 69.1601 34.5027C69.1386 34.5159 69.1202 34.5335 69.1061 34.5545C69.0921 34.5755 69.0827 34.5992 69.0786 34.6241L68.3035 41.2057C68.2596 41.4178 67.9963 41.3886 67.8647 41.1619L61.9194 30.4045" fill="white"/>
<path d="M70.6509 27.7134L75.7698 36.6425C75.9014 36.8692 75.7698 37.1105 75.6016 37.0447L69.3053 34.4852C69.2813 34.4775 69.2559 34.4751 69.2308 34.4781C69.2058 34.4811 69.1817 34.4895 69.1601 34.5027C69.1386 34.5159 69.1202 34.5335 69.1061 34.5545C69.0921 34.5755 69.0827 34.5992 69.0786 34.6241L68.3035 41.2057C68.2596 41.4178 67.9963 41.3886 67.8647 41.1619L61.9194 30.4045" stroke="black" stroke-width="2" stroke-linecap="round"/>
<path d="M61.9147 30.4045L56.4228 41.1911C56.2839 41.4178 56.0352 41.4471 55.984 41.2423L55.0553 34.5144C55.0504 34.4902 55.0403 34.4672 55.0259 34.4471C55.0114 34.427 54.9929 34.4102 54.9715 34.3978C54.9501 34.3853 54.9263 34.3776 54.9016 34.375C54.877 34.3724 54.8521 34.3751 54.8286 34.3828L48.7078 37.0227C48.5031 37.0813 48.3934 36.8472 48.5323 36.6132L53.6513 27.7134" fill="white"/>
<path d="M61.9147 30.4045L56.4228 41.1911C56.2839 41.4178 56.0352 41.4471 55.984 41.2423L55.0553 34.5144C55.0504 34.4902 55.0403 34.4672 55.0259 34.4471C55.0114 34.427 54.9929 34.4102 54.9715 34.3978C54.9501 34.3853 54.9263 34.3776 54.9016 34.375C54.877 34.3724 54.8521 34.3751 54.8286 34.3828L48.7078 37.0227C48.5031 37.0813 48.3934 36.8472 48.5323 36.6132L53.6513 27.7134" stroke="black" stroke-width="2" stroke-linecap="round"/>
<path d="M61.9831 9.66515L63.9576 13.68C63.9636 13.6904 63.972 13.6992 63.9822 13.7056C63.9924 13.7119 64.0041 13.7157 64.0161 13.7165L68.4037 14.3601C68.4622 14.3601 68.4915 14.4478 68.4476 14.4844L65.2446 17.607C65.2388 17.617 65.2358 17.6284 65.2358 17.6399C65.2358 17.6515 65.2388 17.6628 65.2446 17.6728L65.9759 22.0606C65.9785 22.0738 65.9774 22.0875 65.9727 22.1001C65.968 22.1127 65.9599 22.1238 65.9493 22.1321C65.9387 22.1404 65.926 22.1457 65.9127 22.1472C65.8993 22.1488 65.8857 22.1467 65.8735 22.141L61.91 20.0568C61.9008 20.0491 61.8891 20.0449 61.8771 20.0449C61.8651 20.0449 61.8534 20.0491 61.8442 20.0568L57.9245 22.1776C57.9119 22.1826 57.8982 22.1843 57.8847 22.1825C57.8713 22.1808 57.8585 22.1756 57.8475 22.1676C57.8366 22.1596 57.8278 22.1489 57.8221 22.1366C57.8164 22.1243 57.8139 22.1107 57.8149 22.0971L58.5461 17.7094C58.5513 17.6992 58.554 17.6879 58.554 17.6765C58.554 17.665 58.5513 17.6538 58.5461 17.6436L55.3358 14.5209C55.3283 14.5104 55.3234 14.4982 55.3216 14.4854C55.3198 14.4726 55.3211 14.4596 55.3254 14.4474C55.3297 14.4352 55.3369 14.4242 55.3463 14.4153C55.3558 14.4065 55.3672 14.4001 55.3797 14.3966L59.8039 13.7531C59.8161 13.753 59.828 13.7495 59.8383 13.7431C59.8487 13.7366 59.857 13.7274 59.8624 13.7165L61.8442 9.70172C61.843 9.68474 61.8478 9.66788 61.8577 9.65405C61.8676 9.64021 61.8821 9.63028 61.8985 9.62594C61.915 9.62161 61.9324 9.62316 61.9479 9.63031C61.9633 9.63747 61.9758 9.64979 61.9831 9.66515Z" fill="white" stroke="black" stroke-width="2" stroke-linecap="round"/>
</svg>
