<svg width="73" height="65" viewBox="0 0 73 65" fill="none" xmlns="http://www.w3.org/2000/svg">
<path d="M13.0001 20.1799L14.0001 19.3799C15.6001 18.1799 16.8001 16.1799 17.0001 14.1799L17.2001 13.3799C18.0001 8.1799 23.6001 4.9799 28.8001 6.9799C31.0001 7.7799 33.2001 7.7799 35.4001 6.9799C40.4001 4.7799 46.2001 7.9799 47.0001 13.3799L47.2001 14.1799C47.4001 16.1799 48.6001 18.1799 50.2001 19.3799L51.2001 20.1799C55.4001 23.3799 55.4001 29.3799 51.2001 32.5799L50.0001 33.3799C48.4001 34.5799 47.2001 36.5799 47.0001 38.5799L46.8001 39.3799C46.0001 44.5799 40.4001 47.7799 35.2001 45.7799C33.0001 44.9799 30.8001 44.9799 28.6001 45.7799C23.6001 47.9799 17.8001 44.7799 17.0001 39.3799L16.8001 38.5799C16.6001 36.5799 15.4001 34.5799 13.8001 33.3799L12.8001 32.5799C9.00009 29.3799 9.00009 23.3799 13.0001 20.1799Z" stroke="black" stroke-width="2" stroke-miterlimit="10" stroke-linecap="round" stroke-linejoin="round"/>
<path d="M44 44.3799V58.3799L32 52.3799L20 58.3799V44.3799" stroke="black" stroke-width="2" stroke-miterlimit="10" stroke-linecap="round" stroke-linejoin="round"/>
<path d="M32 18.3799V20.3799" stroke="black" stroke-width="2" stroke-miterlimit="10" stroke-linecap="round" stroke-linejoin="round"/>
<path d="M32 32.3799V34.3799" stroke="black" stroke-width="2" stroke-miterlimit="10" stroke-linecap="round" stroke-linejoin="round"/>
<path d="M34 20.3799H31C29.4 20.3799 28 21.7799 28 23.3799C28 24.9799 29.4 26.3799 31 26.3799H33C34.6 26.3799 36 27.7799 36 29.3799C36 30.9799 34.6 32.3799 33 32.3799H30" stroke="black" stroke-width="2" stroke-miterlimit="10" stroke-linecap="round" stroke-linejoin="round"/>
<path d="M59.243 51.6938L55 47.4498L56.414 46.0358L59.243 48.8638L64.899 43.2068L66.314 44.6218L59.243 51.6938Z" fill="black"/>
<path fill-rule="evenodd" clip-rule="evenodd" d="M50 47.3799C50 41.3049 54.925 36.3799 61 36.3799C67.075 36.3799 72 41.3049 72 47.3799C72 53.4549 67.075 58.3799 61 58.3799C54.925 58.3799 50 53.4549 50 47.3799ZM61 56.3799C59.8181 56.3799 58.6478 56.1471 57.5558 55.6948C56.4639 55.2425 55.4718 54.5796 54.636 53.7438C53.8003 52.9081 53.1374 51.916 52.6851 50.824C52.2328 49.7321 52 48.5618 52 47.3799C52 46.198 52.2328 45.0277 52.6851 43.9357C53.1374 42.8438 53.8003 41.8516 54.636 41.0159C55.4718 40.1802 56.4639 39.5173 57.5558 39.065C58.6478 38.6127 59.8181 38.3799 61 38.3799C63.3869 38.3799 65.6761 39.3281 67.364 41.0159C69.0518 42.7037 70 44.9929 70 47.3799C70 49.7668 69.0518 52.056 67.364 53.7438C65.6761 55.4317 63.3869 56.3799 61 56.3799Z" fill="black"/>
</svg>
