<svg width="88" height="65" viewBox="0 0 88 65" fill="none" xmlns="http://www.w3.org/2000/svg">
<path d="M60.8 53.4999C54.4338 50.1239 49.5505 48.2309 45.2035 47.5051L45.6534 46.8866C45.8667 46.6733 45.9734 46.3533 45.8667 46.0333L44.8671 42.0349C45.2294 41.5228 45.5711 40.9933 45.8913 40.4489C49.8662 39.096 51.8764 36.8091 52.2141 33.4421C53.9601 33.3511 55.4666 31.7928 55.4666 30.0333V22.0333C55.4666 20.2818 54.0732 18.7296 52.2479 18.6258C52.013 12.4638 49.296 0.379883 32 0.379883C14.7036 0.379883 11.9869 12.4643 11.752 18.6261C10.0204 18.7284 8.53337 20.1823 8.53337 22.0331V30.0331C8.53337 31.8465 10.1334 33.4465 12.0534 33.4465H13.6534C14.2414 33.4465 14.8065 33.2775 15.2987 32.9883C15.9036 36.1989 17.2385 39.3568 19.133 42.0348L18.1334 46.0331C18.1334 46.2465 18.1334 46.5665 18.3468 46.8865L18.7966 47.505C14.4496 48.2309 9.56637 50.1238 3.20012 53.4998C1.17337 54.4599 0 56.4865 0 58.7265V63.3131C0 63.9533 0.426625 64.3799 1.06662 64.3799H26.6666H27.0933H36.9066H37.3332H62.9333C63.5732 64.3799 63.9999 63.9533 63.9999 63.3133V58.7266C64 56.5933 62.72 54.5665 60.8 53.4999ZM32.0059 51.06L34.56 56.9133H29.4044L32.0059 51.06ZM28.6294 59.0465H35.3665L35.9909 62.2465H27.9893L28.6294 59.0465ZM43.2 44.1133L43.6266 46.0333L42.537 47.5294C42.4675 47.5863 42.4031 47.6551 42.3466 47.7399L37.9098 53.8833L36.502 55.8163L33.6264 49.3461C37.1336 48.9184 40.2569 47.1309 42.761 44.5696C42.909 44.4204 43.0555 44.2688 43.2 44.1133ZM47.3651 37.4779C47.9667 36.014 48.4202 34.4924 48.707 32.9586C49.1131 33.2046 49.5755 33.369 50.074 33.4248C49.8891 34.9325 49.2192 36.356 47.3651 37.4779ZM53.2266 21.9265V29.9265C53.2266 30.5665 52.6932 31.2065 51.9466 31.2065H50.3466C49.7066 31.2065 49.0666 30.6731 49.0666 29.9265V29.1799V21.9265C49.0666 21.2865 49.6 20.6465 50.3466 20.6465H51.9466C52.5866 20.6465 53.2266 21.1799 53.2266 21.9265ZM32 2.51326C38.5746 2.51326 49.6398 4.65951 50.1155 18.6373C49.6685 18.6831 49.2404 18.819 48.8531 19.0278C47.5551 10.9051 40.4734 4.64651 32 4.64651C23.5278 4.64651 16.4468 10.9034 15.1474 19.0243C14.7659 18.8183 14.3399 18.6821 13.8844 18.6369C14.3604 4.65951 25.4255 2.51326 32 2.51326ZM14.8266 29.9265C14.8266 30.5665 14.2933 31.2065 13.5466 31.2065H11.9466C11.3066 31.2065 10.6666 30.6731 10.6666 29.9265V21.9265C10.6666 21.2865 11.2 20.6465 11.9466 20.6465H13.5466C14.1866 20.6465 14.8266 21.1799 14.8266 21.9265V29.9265ZM17.0666 21.7133C17.0666 13.4999 23.7866 6.77988 32 6.77988C40.2134 6.77988 46.9334 13.4999 46.9334 21.7133V29.1799C46.9334 32.7089 46.0146 35.9398 44.5251 38.6658C41.9791 39.4043 38.3165 39.8465 33.0667 39.8465C32.4268 39.8465 32.0001 40.2731 32.0001 40.9131C32.0001 41.5531 32.4268 41.9798 33.0667 41.9798C36.9099 41.9798 40.124 41.7438 42.7561 41.2504C42.6908 41.3158 42.6254 41.3811 42.56 41.4465C42.0234 42.162 41.457 42.8144 40.8652 43.4026C38.3536 45.7425 35.358 47.1599 32.4712 47.3003C32.326 47.2379 32.1631 47.2065 32 47.2065C31.836 47.2065 31.6882 47.2386 31.5557 47.3016C29.7887 47.2206 27.9804 46.6605 26.2663 45.7025C24.5296 44.7048 22.896 43.2664 21.44 41.4465C21.3334 41.3399 21.2266 41.2331 21.12 41.1265L21.0578 41.1058C18.6623 37.964 17.0666 33.8309 17.0666 29.1799V21.7133ZM30.3735 49.3461L27.4979 55.8163L26.0901 53.8833L21.6532 47.7399C21.6192 47.7059 21.5817 47.6723 21.5427 47.6391L20.3732 46.0333L20.7999 44.1133C20.9443 44.2688 21.0907 44.4203 21.2385 44.5694C23.7428 47.1306 26.8663 48.9183 30.3735 49.3461ZM2.13337 58.7265C2.13337 57.3399 2.88 56.0599 4.16 55.4199C10.9591 51.8079 15.8535 49.995 20.2135 49.4535L26.5788 58.2058L25.7706 62.2465H2.13337V58.7265ZM61.8666 62.2465H38.2294L37.4212 58.2058L43.8555 49.3586C48.2001 50.0143 53.1824 51.8258 59.8401 55.3131C61.1201 56.0598 61.8667 57.3398 61.8667 58.7265L61.8666 62.2465Z" fill="black"/>
<path d="M84.2111 25.1629C83.0131 23.9593 81.5863 23.0049 80.0138 22.3554C78.4414 21.7059 76.7548 21.3743 75.0523 21.38C67.9186 21.38 62.1045 27.1649 62.1045 34.2629C62.1045 36.5379 62.7055 38.7479 63.8291 40.6979L62 47.3799L68.8593 45.5859C70.7538 46.6129 72.8834 47.1589 75.0523 47.1589C82.1859 47.1589 88 41.3739 88 34.2759C88 30.8309 86.6543 27.5939 84.2111 25.1629ZM75.0523 44.9749C73.1186 44.9749 71.2241 44.4549 69.5648 43.4799L69.1729 43.2459L65.0965 44.3119L66.1809 40.3599L65.9196 39.9569C64.845 38.2501 64.2746 36.277 64.2734 34.2629C64.2734 28.3609 69.1075 23.5509 75.0392 23.5509C77.9136 23.5509 80.6181 24.6689 82.6432 26.6969C83.6461 27.69 84.4409 28.8712 84.9814 30.1723C85.5219 31.4733 85.7974 32.8681 85.792 34.2759C85.8181 40.1779 80.9839 44.9749 75.0523 44.9749ZM80.9578 36.9669C80.6312 36.8109 79.0372 36.0309 78.7497 35.9139C78.4492 35.8099 78.2402 35.7579 78.0181 36.0699C77.796 36.3949 77.1819 37.1229 76.999 37.3309C76.8161 37.5519 76.6201 37.5779 76.2935 37.4089C75.9668 37.2529 74.9216 36.9019 73.6935 35.8099C72.7266 34.9519 72.0864 33.8989 71.8905 33.5739C71.7075 33.2489 71.8643 33.0799 72.0342 32.9109C72.1779 32.7679 72.3608 32.5339 72.5176 32.3519C72.6744 32.1699 72.7397 32.0269 72.8442 31.8189C72.9487 31.5979 72.8965 31.4159 72.8181 31.2599C72.7397 31.1039 72.0864 29.5179 71.8251 28.8679C71.5638 28.2439 71.2894 28.3219 71.0935 28.3089H70.4663C70.2442 28.3089 69.9045 28.3869 69.604 28.7119C69.3166 29.0369 68.4804 29.8169 68.4804 31.4029C68.4804 32.9889 69.6432 34.5229 69.8 34.7309C69.9568 34.9519 72.0864 38.2019 75.3266 39.5929C76.0975 39.9309 76.6985 40.1259 77.1688 40.2689C77.9397 40.5159 78.6452 40.4769 79.207 40.3989C79.8342 40.3079 81.1276 39.6189 81.3889 38.8649C81.6633 38.1109 81.6633 37.4739 81.5719 37.3309C81.4804 37.1879 81.2844 37.1229 80.9578 36.9669Z" fill="black"/>
</svg>
